<svg width="18" height="18" viewBox="0 0 18 18" fill="none" xmlns="http://www.w3.org/2000/svg">
<path d="M11.0625 14.25C11.0625 15.39 10.14 16.3125 9 16.3125C7.86 16.3125 6.9375 15.39 6.9375 14.25C6.9375 13.11 7.86 12.1875 9 12.1875C10.14 12.1875 11.0625 13.11 11.0625 14.25ZM8.0625 14.25C8.0625 14.7675 8.4825 15.1875 9 15.1875C9.5175 15.1875 9.9375 14.7675 9.9375 14.25C9.9375 13.7325 9.5175 13.3125 9 13.3125C8.4825 13.3125 8.0625 13.7325 8.0625 14.25Z" fill="#292D32"/>
<path d="M11.0625 3.75C11.0625 4.89 10.14 5.8125 9 5.8125C7.86 5.8125 6.9375 4.89 6.9375 3.75C6.9375 2.61 7.86 1.6875 9 1.6875C10.14 1.6875 11.0625 2.61 11.0625 3.75ZM8.0625 3.75C8.0625 4.2675 8.4825 4.6875 9 4.6875C9.5175 4.6875 9.9375 4.2675 9.9375 3.75C9.9375 3.2325 9.5175 2.8125 9 2.8125C8.4825 2.8125 8.0625 3.2325 8.0625 3.75Z" fill="#292D32"/>
<path d="M11.0625 9C11.0625 10.14 10.14 11.0625 9 11.0625C7.86 11.0625 6.9375 10.14 6.9375 9C6.9375 7.86 7.86 6.9375 9 6.9375C10.14 6.9375 11.0625 7.86 11.0625 9ZM8.0625 9C8.0625 9.5175 8.4825 9.9375 9 9.9375C9.5175 9.9375 9.9375 9.5175 9.9375 9C9.9375 8.4825 9.5175 8.0625 9 8.0625C8.4825 8.0625 8.0625 8.4825 8.0625 9Z" fill="#292D32"/>
</svg>
