<svg width="40" height="40" viewBox="0 0 40 40" fill="none" xmlns="http://www.w3.org/2000/svg">
<rect width="40" height="40" rx="10" fill="#28C76F" fill-opacity="0.2"/>
<g clip-path="url(#clip0_320_1481)">
<path d="M12.4832 28.9423L12.4905 28.9255C12.6151 28.6558 12.8422 28.4507 13.1659 28.315L14.1926 27.8422L14.247 27.7964C14.2079 27.7515 14.1697 27.7053 14.1327 27.6575C13.6686 27.0545 13.4136 26.2534 13.3922 25.339L13.25 25.274L12.7207 24.8271L11.8703 25.6733H11.8697L11.772 25.6732H11.7714L10.9211 24.8271L10.3918 25.274L9.29018 25.7811C9.12717 25.8482 8.96702 25.9496 8.88549 26.126C8.88549 26.126 7.6881 28.9768 8.33761 28.9768H12.4688C12.4769 28.9577 12.4818 28.9458 12.4832 28.9423Z" fill="#28C76F"/>
<path d="M9.83418 22.244C9.85325 24.0047 10.8373 25.0539 11.8208 25.0539C12.6611 25.0539 13.7882 24.0047 13.8075 22.244C13.8197 21.0226 13.2379 20.2913 11.8208 20.2913C10.4037 20.2912 9.82178 21.0226 9.83418 22.244Z" fill="#28C76F"/>
<path d="M18.6548 28.315C18.988 28.4544 19.224 28.6711 19.3378 28.9435C19.339 28.9463 19.3437 28.9579 19.3519 28.9768H20.6474C20.6555 28.9577 20.6605 28.9458 20.6619 28.9423L20.6695 28.9255C20.7938 28.6558 21.021 28.4507 21.3445 28.315L22.3715 27.8422L22.4259 27.7964C22.3866 27.7515 22.3484 27.7053 22.3114 27.6575C21.8473 27.0545 21.5923 26.2534 21.5712 25.339L21.429 25.274L20.8998 24.8271L20.0491 25.6733H20.0487L19.9508 25.6732H19.9504L19.0998 24.8271L18.5706 25.274L18.4282 25.3391C18.4055 26.2279 18.1225 27.0523 17.6269 27.6673C17.5988 27.7021 17.5702 27.7355 17.541 27.7689L17.6282 27.8422L18.6548 28.315Z" fill="#28C76F"/>
<path d="M19.9999 25.054C20.8401 25.054 21.9675 24.0047 21.9865 22.244C21.9989 21.0226 21.4169 20.2913 19.9999 20.2913C18.5828 20.2913 18.0011 21.0226 18.0134 22.244C18.0323 24.0047 19.0164 25.054 19.9999 25.054Z" fill="#28C76F"/>
<path d="M31.114 26.126C31.043 25.9568 30.8724 25.8482 30.7093 25.7811L29.6077 25.274L29.0784 24.8271L28.2281 25.6733H28.2274L28.1298 25.6732H28.1292L27.2789 24.8271L26.7496 25.274L26.6073 25.3391C26.5844 26.2279 26.3014 27.0523 25.8055 27.6673C25.7775 27.7021 25.7488 27.7355 25.7197 27.7689L25.8069 27.8422L26.8337 28.315C27.167 28.4544 27.403 28.6711 27.5167 28.9435C27.5179 28.9463 27.5229 28.9579 27.5308 28.9768H31.662C32.3114 28.9768 31.114 26.126 31.114 26.126Z" fill="#28C76F"/>
<path d="M26.1921 22.244C26.2112 24.0047 27.1953 25.0539 28.1787 25.0539C29.019 25.0539 30.1463 24.0047 30.1653 22.244C30.1776 21.0226 29.5957 20.2913 28.1787 20.2913C26.7615 20.2912 26.1796 21.0226 26.1921 22.244Z" fill="#28C76F"/>
<path d="M18.4409 28.8039L17.3395 28.2965L16.8101 27.8506L15.9598 28.6961H15.9591H15.8614H15.8608L15.0104 27.8506L14.4812 28.2965L13.3795 28.8039C13.2165 28.8705 13.0563 28.9719 12.9749 29.1491C12.9749 29.1491 11.7775 32 12.427 32H19.3937C20.0431 32 18.8458 29.1491 18.8458 29.1491C18.7747 28.9791 18.6041 28.8705 18.4409 28.8039Z" fill="#28C76F"/>
<path d="M15.9101 23.3145C14.493 23.3145 13.9112 24.0453 13.9235 25.2668C13.9427 27.0269 14.9268 28.077 15.9101 28.077C16.7504 28.077 17.8778 27.0269 17.8967 25.2668C17.9093 24.0452 17.3272 23.3145 15.9101 23.3145Z" fill="#28C76F"/>
<path d="M26.6202 28.8039L25.5184 28.2965L24.9893 27.8506L24.1388 28.6961H24.1383H24.0405H24.04L23.1897 27.8506L22.6603 28.2965L21.5589 28.8039C21.3958 28.8705 21.2358 28.9719 21.154 29.1491C21.154 29.1491 19.9567 32 20.6062 32H27.5729C28.2224 32 27.0249 29.1491 27.0249 29.1491C26.9538 28.9791 26.7831 28.8705 26.6202 28.8039Z" fill="#28C76F"/>
<path d="M24.0893 28.0773C24.9295 28.0773 26.0567 27.0271 26.0759 25.267C26.0881 24.0454 25.5064 23.3147 24.0893 23.3147C22.6722 23.3147 22.0901 24.0455 22.1027 25.267C22.1216 27.0271 23.1056 28.0773 24.0893 28.0773Z" fill="#28C76F"/>
<path d="M19.3118 15.5831C19.3404 15.5972 19.3713 15.6041 19.402 15.6041C19.4459 15.6041 19.4896 15.59 19.5258 15.5624L21.6246 13.9581C21.6751 13.9196 21.7047 13.8597 21.7047 13.7963C21.7047 13.7327 21.675 13.6729 21.6246 13.6343L19.5258 12.0301C19.4642 11.9831 19.3812 11.975 19.3117 12.0094C19.2422 12.0437 19.1982 12.1145 19.1982 12.1921V15.4003C19.1983 15.4779 19.2422 15.5486 19.3118 15.5831Z" fill="#28C76F"/>
<path d="M9.2484 19.5927H30.7508C30.9077 19.5927 31.0349 19.4656 31.0349 19.3087V8.28404C31.0349 8.12717 30.9077 8 30.7508 8H9.2484C9.09153 8 8.96436 8.12717 8.96436 8.28404V19.3087C8.96436 19.4656 9.09158 19.5927 9.2484 19.5927ZM19.9997 10.4925C21.8243 10.4925 23.3035 11.9717 23.3035 13.7964C23.3035 15.6211 21.8244 17.1002 19.9997 17.1002C18.175 17.1002 16.6958 15.6211 16.6958 13.7964C16.6958 11.9717 18.175 10.4925 19.9997 10.4925Z" fill="#28C76F"/>
</g>
<defs>
<clipPath id="clip0_320_1481">
<rect width="24" height="24" fill="white" transform="translate(8 8)"/>
</clipPath>
</defs>
</svg>
