<svg width="49" height="49" viewBox="0 0 49 49" fill="none" xmlns="http://www.w3.org/2000/svg">
<path d="M24.5 3.62787C18.9213 3.63422 13.5728 5.85318 9.62808 9.79794C5.68332 13.7427 3.46436 19.0911 3.45801 24.6699C3.45801 30.2919 5.64801 35.5749 9.62301 39.5469C11.5717 41.5075 13.89 43.0619 16.4437 44.1201C18.9974 45.1784 21.7357 45.7194 24.5 45.7119C30.0787 45.7055 35.4272 43.4866 39.3719 39.5418C43.3167 35.597 45.5357 30.2486 45.542 24.6699C45.5357 19.0911 43.3167 13.7427 39.3719 9.79794C35.4272 5.85318 30.0787 3.63422 24.5 3.62787ZM24.5 6.62787C29.2833 6.63343 33.8692 8.53606 37.2515 11.9184C40.6338 15.3007 42.5364 19.8865 42.542 24.6699C42.5379 29.2063 40.8166 33.573 37.724 36.8919C35.6825 34.4751 33.0243 32.6567 30.032 31.6299C31.0708 30.7874 31.9088 29.7239 32.4848 28.5168C33.0609 27.3097 33.3605 25.9894 33.362 24.6519C33.3585 23.4691 33.1216 22.2987 32.665 21.2076C32.2084 20.1166 31.541 19.1263 30.701 18.2936C29.8611 17.4609 28.8651 16.8022 27.7701 16.355C26.6752 15.9079 25.5027 15.6812 24.32 15.6879C23.1378 15.6914 21.9678 15.9281 20.8772 16.3843C19.7865 16.8405 18.7965 17.5074 17.9639 18.3467C17.1313 19.186 16.4724 20.1813 16.0249 21.2756C15.5774 22.3699 15.3501 23.5416 15.356 24.7239C15.356 27.5109 16.664 29.9739 18.668 31.6179C15.7365 32.617 13.1219 34.3745 11.09 36.7119C8.1021 33.4136 6.45063 29.1202 6.45801 24.6699C6.46357 19.8865 8.3662 15.3007 11.7485 11.9184C15.1309 8.53606 19.7167 6.63343 24.5 6.62787ZM24.395 18.6879C27.686 18.6879 30.359 21.3639 30.359 24.7239C30.3552 26.2693 29.7516 27.7529 28.6754 28.8621C27.5993 29.9712 26.1346 30.6193 24.59 30.6699C24.503 30.6699 24.419 30.6519 24.332 30.6519C24.257 30.6519 24.185 30.6669 24.11 30.6699C22.5581 30.6092 21.0907 29.9473 20.018 28.8242C18.9453 27.7011 18.3515 26.2049 18.362 24.6519C18.362 21.3639 21.035 18.6879 24.395 18.6879ZM24.107 33.6639C24.179 33.6669 24.251 33.6879 24.323 33.6879H24.395C24.461 33.6879 24.515 33.6669 24.581 33.6639C26.6739 33.7004 28.7341 34.189 30.6205 35.0963C32.5069 36.0035 34.1748 37.3078 35.51 38.9199C32.3656 41.3764 28.4902 42.7112 24.5 42.7119C20.4194 42.7201 16.4585 41.3335 13.274 38.7819C14.6126 37.2083 16.2711 35.938 18.139 35.0555C20.0069 34.1731 22.0414 33.6986 24.107 33.6639Z" fill="#5C5D5F"/>
</svg>
